<svg xmlns="http://www.w3.org/2000/svg" xmlns:xlink="http://www.w3.org/1999/xlink" width="500" zoomAndPan="magnify" viewBox="0 0 375 374.999991" height="500" preserveAspectRatio="xMidYMid meet" version="1.0"><defs><clipPath id="3cbfb917df"><path d="M 151 223 L 292 223 L 292 297.195312 L 151 297.195312 Z M 151 223 " clip-rule="nonzero"/></clipPath><clipPath id="9e8b0c7431"><path d="M 100 89 L 297.195312 89 L 297.195312 285 L 100 285 Z M 100 89 " clip-rule="nonzero"/></clipPath><clipPath id="e266189e66"><path d="M 152 77.445312 L 291 77.445312 L 291 151 L 152 151 Z M 152 77.445312 " clip-rule="nonzero"/></clipPath><clipPath id="5b1852f1f7"><path d="M 77.445312 132 L 177 132 L 177 243 L 77.445312 243 Z M 77.445312 132 " clip-rule="nonzero"/></clipPath></defs><g clip-path="url(#3cbfb917df)"><path fill="#000c8a" d="M 291.003906 223.683594 C 275.992188 266.488281 235.230469 297.179688 187.3125 297.179688 C 174.945312 297.179688 163.054688 295.132812 151.960938 291.363281 L 253.488281 223.683594 Z M 291.003906 223.683594 " fill-opacity="1" fill-rule="nonzero"/></g><g clip-path="url(#9e8b0c7431)"><path fill="#007847" d="M 297.179688 187.3125 C 297.179688 194.816406 296.4375 202.136719 295 209.210938 L 249.285156 209.210938 L 136.210938 284.585938 C 122.4375 277.351562 110.402344 267.261719 100.847656 255.109375 L 203.539062 187.007812 L 100.839844 119.523438 C 110.496094 107.21875 122.734375 97.03125 136.722656 89.765625 L 249.285156 164.800781 L 294.867188 164.800781 C 296.386719 172.058594 297.179688 179.597656 297.179688 187.3125 Z M 297.179688 187.3125 " fill-opacity="1" fill-rule="nonzero"/></g><path fill="#ffffff" d="M 290.78125 150.328125 L 253.480469 150.328125 L 152.550781 83.054688 C 147.070312 84.886719 141.777344 87.128906 136.714844 89.765625 L 249.285156 164.800781 L 294.867188 164.800781 C 293.832031 159.835938 292.472656 155.011719 290.789062 150.328125 Z M 249.285156 209.210938 L 136.210938 284.585938 C 141.242188 287.25 146.511719 289.511719 151.960938 291.363281 L 253.488281 223.683594 L 291.003906 223.683594 C 292.652344 219 293.992188 214.160156 295 209.210938 Z M 249.285156 209.210938 " fill-opacity="1" fill-rule="nonzero"/><g clip-path="url(#e266189e66)"><path fill="#e1392d" d="M 290.78125 150.328125 L 253.480469 150.328125 L 152.550781 83.054688 C 163.472656 79.417969 175.164062 77.445312 187.3125 77.445312 C 235.003906 77.445312 275.613281 107.847656 290.78125 150.328125 Z M 290.78125 150.328125 " fill-opacity="1" fill-rule="nonzero"/></g><path fill="#ffb915" d="M 203.539062 187.007812 L 100.847656 255.109375 C 97.730469 251.148438 94.878906 246.945312 92.339844 242.5625 L 176.113281 187.007812 L 92.375 131.996094 C 94.898438 127.632812 97.730469 123.472656 100.835938 119.523438 Z M 203.539062 187.007812 " fill-opacity="1" fill-rule="nonzero"/><g clip-path="url(#5b1852f1f7)"><path fill="#000000" d="M 176.113281 187.007812 L 92.339844 242.5625 C 82.863281 226.335938 77.445312 207.453125 77.445312 187.3125 C 77.445312 167.171875 82.875 148.242188 92.375 132.003906 L 176.113281 187.015625 Z M 176.113281 187.007812 " fill-opacity="1" fill-rule="nonzero"/></g></svg>